# xmcd
#
# Track frame offsets:
#	150
#	28741
#	40354
#	69765
#	74470
#	94465
#	101834
#	136854
#	146125
#	161505
#	190876
#	214639
#
# Disc length: 3187 seconds
#
# Revision: 0
# Processed by: cddbd v1.5.2PL0 Copyright (c) Steve Scherf et al.
# Submitted via: EZCDAudioConverter 5.0.0.1
#
DISCID=b20c710c
DTITLE=Эдвард Ланге - Моя Византия
DYEAR=2016
DGENRE=
TTITLE0=Эдвард Ланге, Ольга Воробьева - Псалом 140
TTITLE1=Эдвард Ланге, Ольга Воробьева, сестры Свято-Елисаветинского монастыря 
TTITLE1=/ Взбранной Воеводе
TTITLE2=Эдвард Ланге, Ольга Воробьева - Херувимская песнь
TTITLE3=Эдвард Ланге - Достойно есть
TTITLE4=Эдвард Ланге, мон. Иулиания - Песнь Богородицы
TTITLE5=Эдвард Ланге - Аллилуиа
TTITLE6=Эдвард Ланге - Псалом 50
TTITLE7=Эдвард Ланге, Ольга Воробьева - Христос Воскресе
TTITLE8=Эдвард Ланге, сестры Свято-Елисаветинского монастыря - Полиелей сербск
TTITLE8=ий
TTITLE9=Эдвард Ланге, Ольга Воробьева - Псалом 136
TTITLE10=Эдвард Ланге, игумен Силуан - Ирмосы Рождества Христовы
TTITLE11=Эдвард Ланге, Ольга Воробьева, сестры Свято-Елисаветинского монастыря
TTITLE11=Первый антифон на Литургии
EXTD=
EXTT0=
EXTT1=
EXTT2=
EXTT3=
EXTT4=
EXTT5=
EXTT6=
EXTT7=
EXTT8=
EXTT9=
EXTT10=
EXTT11=
PLAYORDER=
